# xmcd
#
# Track frame offsets: 
#        150
#        16435
#        20775
#        36710
#        41210
#        62332
#        74917
#        86772
#        103532
#        116947
#        132162
#
# Disc length: 2018 seconds
#
# Revision: 7
# Processed by: cddbd v1.5.2PL0 Copyright (c) Steve Scherf et al.
# Submitted via: ExactAudioCopy v1.2
#
DISCID=a807e00b
DTITLE=The The - Hanky Panky
DYEAR=1994
DGENRE=Alternative
TTITLE0=Honky Tonkin'
TTITLE1=Six More Miles
TTITLE2=My Heart Would Know
TTITLE3=If You'll Be a Baby to Me
TTITLE4=I'm a Long Gone Daddy
TTITLE5=Weary Blues from Waitin'
TTITLE6=I Saw the Light
TTITLE7=Your Cheatin' Heart
TTITLE8=I Can't Get You off of My Mind
TTITLE9=There's a Tear in My Beer
TTITLE10=I Can't Escape from You
EXTD=
EXTT0=
EXTT1=
EXTT2=
EXTT3=
EXTT4=
EXTT5=
EXTT6=
EXTT7=
EXTT8=
EXTT9=
EXTT10=
PLAYORDER=
